# xmcd
#
# Track frame offsets:
#	150
#	25437
#	38567
#	58177
#	76097
#	84852
#	98050
#	114232
#	128015
#	140060
#
# Disc length: 2156 seconds
#
# Revision: 1
# Processed by: cddbd v1.5.1PL0 Copyright (c) Steve Scherf et al.
# Submitted via: CDex 1.50Beta5
#
DISCID=74086a0a
DTITLE=チューリップ - Someday Somewhere Disc 1
DYEAR=1997
DGENRE=
TTITLE0=愛の窓辺
TTITLE1=今日と明日の間に
TTITLE2=Silent Love
TTITLE3=Blue Eyes(この小さな星のうえで)
TTITLE4=いま,友へ
TTITLE5=まだ闇の内(なか)
TTITLE6=Give me a chance
TTITLE7=サーカスは青い空
TTITLE8=思い出のフリスビー
TTITLE9=8億光年の彼方へ
EXTD=
EXTT0=
EXTT1=
EXTT2=
EXTT3=
EXTT4=
EXTT5=
EXTT6=
EXTT7=
EXTT8=
EXTT9=
PLAYORDER=
